<svg xmlns="http://www.w3.org/2000/svg" width="151" height="40" viewBox="0 0 151 40">
  <defs>
    <style>
      .cls-1 {
        fill: #1ba3fc;
      }

      .cls-1, .cls-2 {
        fill-rule: evenodd;
      }

      .cls-2 {
        fill: #3ccd8a;
      }
    </style>
  </defs>
  <path class="cls-1" d="M37.879,32.424a24.2,24.2,0,0,0-8.555-4.043s-0.539-14.1-1.19-16.969H25.069S22.246,16.99,21,20.332c0,0-3.066-7.466-4.071-8.92H13.713a135.507,135.507,0,0,0-1.152,16.873,23.774,23.774,0,0,0-8.8,4.139A20.252,20.252,0,0,1,.348,18.156C1.537,9.819,7.507,3.068,14.622,1.106s12.471-.6,16.675,1.9a21.852,21.852,0,0,1,9.028,11.008A21.1,21.1,0,0,1,37.879,32.424Zm-22.25-4.78a34.078,34.078,0,0,1,10.115,0s-0.272-9.535-.456-11.152l-3.428,8.043H19.514l-3.428-8.043S15.63,23.029,15.63,27.645Z"/>
  <path class="cls-2" d="M7.5,36.5a30.673,30.673,0,0,1,28.434-1.513l0.807-.9a29.812,29.812,0,0,0-16.1-4.407c-9.71.066-15.657,4.3-15.657,4.3A24.267,24.267,0,0,0,7.5,36.5Zm1.385,1.412A17.853,17.853,0,0,0,11.7,39.5a31.614,31.614,0,0,1,22.179-2.818l0.739-.612s-4.1-1.886-11.444-1.886A30.545,30.545,0,0,0,8.889,37.908Z"/>
  <path class="cls-1" d="M52.521,12q0.45,0.825,1.037,2.038t1.224,2.626q0.637,1.413,1.262,2.888l1.174,2.776,1.174-2.776q0.624-1.475,1.262-2.888t1.224-2.626Q61.466,12.826,61.916,12h3.539q0.249,1.726.461,3.864t0.374,4.452q0.161,2.313.3,4.639t0.237,4.378H63.037q-0.074-2.527-.2-5.5t-0.374-6q-0.451,1.05-1,2.326T60.377,22.7q-0.537,1.276-1.037,2.439t-0.85,1.989H55.773q-0.351-.825-0.85-1.989T53.886,22.7q-0.538-1.275-1.087-2.551t-1-2.326q-0.249,3.026-.374,6t-0.2,5.5H47.438q0.1-2.052.236-4.378t0.3-4.639q0.162-2.313.374-4.452T48.808,12h3.713Zm17.768,0h3.887V29.333H70.289V12ZM89.752,29.333q-1.67-2.977-3.613-5.879A59.711,59.711,0,0,0,82,17.978V29.333H78.164V12h3.165q0.822,0.825,1.819,2.026t2.031,2.563q1.034,1.363,2.056,2.826t1.919,2.814V12h3.862V29.333H89.752Zm18.832,0q-0.29-.9-0.621-1.856t-0.66-1.9h-6.744q-0.329.949-.656,1.9t-0.612,1.851H95.252q0.975-2.8,1.85-5.178t1.712-4.477q0.837-2.1,1.65-3.99T102.151,12h3.685q0.852,1.8,1.678,3.689t1.665,3.99q0.838,2.1,1.715,4.477t1.853,5.178h-4.164Zm-4.671-13.406c-0.086.252-.214,0.594-0.38,1.027s-0.358.934-.571,1.5-0.452,1.193-.716,1.876-0.531,1.4-.8,2.149h4.938q-0.4-1.128-.768-2.154t-0.706-1.88q-0.334-.852-0.586-1.5T103.912,15.927Zm23.563,13.406q-0.288-.9-0.62-1.856t-0.661-1.9h-6.745l-0.655,1.9q-0.33.953-.613,1.851h-4.036q0.974-2.8,1.849-5.178t1.712-4.477q0.837-2.1,1.65-3.99T121.044,12h3.685q0.851,1.8,1.677,3.689t1.665,3.99q0.838,2.1,1.715,4.477t1.852,5.178h-4.163ZM122.8,15.927c-0.087.252-.213,0.594-0.381,1.027s-0.356.934-.57,1.5-0.452,1.193-.716,1.876-0.531,1.4-.8,2.149h4.938q-0.4-1.128-.768-2.154t-0.706-1.88l-0.587-1.5Q122.961,16.3,122.8,15.927ZM144.62,12v3.326h-5.208V29.333h-3.887V15.327h-5.208V12h14.3Zm2.493,0H151V29.333h-3.887V12Z"/>
</svg>
